<?xml version="1.0" standalone="no"?>
<!DOCTYPE svg PUBLIC "-//W3C//DTD SVG 20010904//EN" "http://www.w3.org/TR/2001/REC-SVG-20010904/DTD/svg10.dtd">
<svg xmlns="http://www.w3.org/2000/svg" version="1.0" width="746.000000pt" height="669.000000pt" viewBox="0 0 746.000000 669.000000" preserveAspectRatio="xMidYMid meet">
<metadata>
Created by potrace 1.16, written by Peter Selinger 2001-2019
<meta name="Producer" content="Online-Convert"/></metadata>
<g transform="translate(0.000000,669.000000) scale(0.100000,-0.100000)" fill="#000000" stroke="none">
<path d="M1176 4954 c21 -47 93 -182 125 -234 5 -8 14 -26 19 -39 6 -14 35 -68 64 -120 30 -53 73 -134 97 -181 24 -47 46 -87 49 -90 6 -6 24 -40 83 -155 22 -44 47 -88 55 -97 9 -10 12 -18 7 -18 -4 0 -3 -6 3 -12 5 -7 30 -51 55 -98 43 -82 76 -143 159 -295 21 -38 50 -92 63 -120 14 -27 42 -81 63 -120 84 -156 146 -272 167 -310 12 -22 41 -76 65 -120 23 -44 46 -84 50 -90 5 -5 9 -13 9 -18 1 -7 57 -116 114 -222 18 -33 64 -120 102 -193 146 -276 164 -311 234 -439 5 -10 56 -103 112 -208 57 -104 113 -208 125 -230 l22 -40 252 -3 253 -2 33 39 c18 21 61 76 95 122 34 46 66 89 73 94 13 12 65 80 88 115 8 14 28 38 43 54 15 16 50 61 78 100 28 39 70 95 95 123 24 29 62 79 85 112 83 116 177 240 328 434 31 40 73 97 94 127 21 30 46 64 57 75 10 11 44 56 75 101 67 94 204 277 213 284 6 5 114 147 208 274 29 39 70 94 92 121 38 48 68 88 168 223 162 217 216 287 223 290 5 2 9 10 9 17 0 7 4 15 8 17 5 2 28 30 52 63 97 135 156 212 185 243 16 18 28 34 26 35 -5 2 45 70 124 171 114 145 195 254 195 265 0 8 -97 11 -360 11 l-360 0 -31 -42 c-75 -105 -168 -230 -190 -256 -10 -12 -19 -27 -19 -32 0 -6 -4 -10 -9 -10 -5 0 -31 -33 -59 -72 -27 -40 -72 -101 -98 -135 -27 -34 -65 -84 -84 -110 -19 -26 -42 -57 -52 -68 -17 -20 -198 -259 -328 -435 -126 -169 -214 -285 -220 -290 -6 -5 -142 -184 -170 -224 -8 -12 -39 -52 -70 -91 -31 -38 -76 -98 -100 -132 -24 -35 -48 -63 -52 -63 -4 0 -8 -6 -8 -13 0 -8 -11 -24 -25 -37 -14 -13 -48 -57 -77 -99 -28 -42 -55 -78 -59 -81 -4 -3 -38 -46 -76 -97 -132 -177 -186 -248 -202 -265 -9 -9 -30 -36 -48 -60 -99 -134 -131 -173 -138 -173 -9 0 -28 33 -110 193 -27 53 -52 99 -56 102 -3 3 -14 23 -26 45 -11 22 -34 65 -50 95 -17 30 -52 96 -78 145 -26 50 -52 96 -58 103 -5 6 -6 12 -1 12 5 0 4 4 -2 8 -5 4 -35 54 -66 112 -31 58 -67 125 -80 150 -44 79 -110 203 -151 280 -95 181 -213 401 -252 470 -23 41 -65 119 -93 173 -29 53 -75 141 -104 195 -83 155 -135 253 -166 312 -34 65 -102 193 -164 305 l-43 80 -342 3 -342 2 25 -56z"/>
<path d="M4146 4958 c-15 -29 -45 -82 -67 -118 -43 -68 -84 -139 -120 -205 -12 -22 -24 -42 -28 -45 -3 -3 -12 -15 -18 -27 -62 -111 -114 -200 -121 -209 -5 -5 -20 -30 -34 -55 -14 -24 -38 -66 -55 -94 -16 -27 -32 -57 -36 -65 -4 -8 -22 -38 -40 -67 -18 -29 -59 -99 -92 -155 -32 -57 -62 -105 -66 -108 -3 -3 -18 -28 -32 -56 -15 -29 -39 -72 -54 -95 -36 -56 -43 -68 -95 -158 -68 -117 -72 -124 -95 -158 -13 -17 -23 -34 -23 -38 0 -5 -18 -36 -40 -71 -22 -35 -40 -68 -40 -74 0 -5 -4 -10 -9 -10 -5 0 -12 -7 -15 -16 -5 -14 5 -38 72 -159 15 -27 51 -93 79 -145 28 -52 70 -129 93 -170 23 -41 46 -87 53 -102 6 -15 17 -30 25 -33 13 -5 51 30 52 48 0 4 15 31 33 60 19 29 45 72 59 97 49 87 191 332 228 395 132 224 300 512 323 555 17 30 33 57 36 60 3 3 17 25 30 50 13 25 33 56 43 69 10 13 18 28 18 34 0 5 24 49 54 96 29 47 65 106 79 131 13 25 57 101 97 170 40 69 82 141 93 160 58 104 71 126 83 140 7 8 13 18 13 23 0 4 7 17 14 30 8 12 47 81 87 152 40 72 82 142 92 157 41 60 51 58 -316 58 l-335 0 -25 -52z"/>
<path d="M4954 3063 c-93 -127 -206 -278 -213 -283 -4 -3 -28 -36 -54 -73 -55 -80 -61 -62 68 -222 44 -55 100 -127 125 -160 24 -33 49 -64 56 -70 6 -5 35 -44 64 -85 30 -41 65 -88 80 -105 14 -16 33 -39 41 -51 19 -29 74 -102 107 -143 15 -18 54 -69 87 -112 33 -43 91 -119 130 -169 l69 -90 373 0 c315 0 373 2 373 14 0 8 -4 16 -8 18 -5 2 -28 30 -52 63 -24 33 -52 69 -62 80 -10 11 -42 52 -71 91 -143 194 -201 269 -209 272 -4 2 -8 10 -8 17 0 7 -4 15 -10 17 -5 2 -34 35 -62 75 -29 39 -92 122 -140 185 -48 62 -98 127 -110 143 -12 17 -49 63 -80 102 -32 40 -58 77 -58 82 0 5 -4 11 -9 13 -5 2 -36 39 -69 83 -241 318 -285 374 -298 375 -6 0 -33 -30 -60 -67z"/>
</g>
</svg>
